<?xml version="1.0" encoding="utf-8"?>
<!-- Generator: Adobe Illustrator 22.0.0, SVG Export Plug-In . SVG Version: 6.00 Build 0)  -->
<svg version="1.1" id="Layer_1" xmlns="http://www.w3.org/2000/svg" xmlns:xlink="http://www.w3.org/1999/xlink" x="0px" y="0px"
	 viewBox="0 0 100 77.5" style="enable-background:new 0 0 100 77.5;" xml:space="preserve">
<path style="fill: #e9ecef;" d="M82.3,57.2c-4.8,2.4-9.2,3.6-12.9,3.6c-1.4,0-2.8-0.1-4.2-0.4c0.4-1.6,0.7-3.4,0.7-5.2c0-4.8-1.4-9-4.1-12.4
	c-2.7-3.4-6.5-5.6-11.3-6.5c4-1.1,7.1-3.1,9.5-6c2.3-2.9,3.5-6.3,3.5-10.3c0-0.9-0.1-1.9-0.2-2.7c1.9-0.5,3.8-0.8,5.9-0.8
	c3.4,0,6.9,0.7,10.4,2.2c3.5,1.5,6.6,3.5,9.4,6.1L100,11.2C96.2,7.8,91.4,5.1,85.9,3S74.8,0,69.2,0c-6.7,0-12.8,1.2-18.4,3.7
	c-0.2-0.1-0.4-0.2-0.6-0.2c-4.2-1.5-9.1-2.3-14.7-2.3H0v74.9h37c5.2,0,9.8-0.7,13.8-2c5.2,2.3,10.9,3.4,17.1,3.4
	c5.2,0,10.7-0.9,16.5-2.7c5.8-1.8,10.7-4.2,14.7-7.1V37.8H82.3V57.2z M19.6,16.5h15c2.7-0.1,4.8,0.5,6.4,1.8c1.6,1.2,2.4,3,2.4,5.3
	c0,2.4-0.8,4.2-2.4,5.5c-1.6,1.3-3.7,2-6.4,2h-15V16.5z M42.6,58.8c-2,1.4-4.7,2.1-8.1,2.1h-15V45.2h15c3.4-0.1,6.1,0.6,8.1,2
	c2,1.4,3,3.3,3,5.6C45.6,55.4,44.6,57.4,42.6,58.8z"/>
</svg>
